<?xml version="1.0" encoding="utf-8"?>
<!-- Generator: Adobe Illustrator 26.0.1, SVG Export Plug-In . SVG Version: 6.00 Build 0)  -->
<svg version="1.1" id="Layer_1" xmlns="http://www.w3.org/2000/svg" xmlns:xlink="http://www.w3.org/1999/xlink" x="0px" y="0px"
	 viewBox="0 0 300 65.3" style="enable-background:new 0 0 300 65.3;" xml:space="preserve">
<style type="text/css">
	.st0{fill:#1F1C26;}
	.st1{fill:#1FA9B0;}
</style>
<g>
	<path class="st0" d="M101.8,45.9h-5l-0.1-3.6c-1.4,2.6-4.4,4.2-7.9,4.2c-3.2,0-5.5-1-7.1-2.9c-1.2-1.7-1.9-4.3-1.9-7.9V20.5h5.1v15
		c0,4.1,1.2,6.7,5.3,6.7c4.2,0,6.3-3.5,6.3-8.1V20.5h5l0.1,3.6c1.4-2.6,4.4-4.2,7.9-4.2c3.2,0,5.5,1,7.1,2.9
		c1.2,1.7,1.9,4.3,1.9,7.9v15.2h-5.1v-15c0-4.1-1.2-6.7-5.3-6.7c-4.2,0-6.3,3.5-6.3,8.1V45.9L101.8,45.9z"/>
	<path class="st0" d="M149.9,20.5v20.1c0,5.1-0.9,8.8-2.8,11c-2.6,3.3-6.4,4.9-11.3,4.9c-4,0-7.8-1.3-11.3-3.8l2.4-3.6
		c0.8,0.7,2.1,1.4,3.8,2.1c1.8,0.7,3.5,1.1,5.2,1.1c3.2,0,5.5-0.9,7-2.8c1.3-1.6,1.9-4,1.9-7.1v-1.3h-0.1c-2,3-5,4.5-8.9,4.5
		c-3.4,0-6.3-1.2-8.7-3.5c-2.4-2.3-3.5-5.4-3.5-9.3s1.2-7,3.5-9.3c2.4-2.3,5.3-3.5,8.7-3.5c4.1,0,7.2,1.9,8.9,4.5h0.2l-0.1-4
		L149.9,20.5L149.9,20.5z M128.9,32.8c0,5,3,8.6,8.1,8.6s8.1-3.6,8.1-8.6s-3-8.7-8.1-8.7C132,24.2,128.9,27.9,128.9,32.8"/>
	<path class="st0" d="M176.8,45.9h-5l-0.1-3.2c-2.4,2.5-5.1,3.8-8.1,3.8c-2.5,0-4.5-0.7-6.3-2.1c-1.7-1.4-2.5-3.3-2.5-5.7
		c0-4.9,3.8-7.5,9.9-7.8l6.8-0.3v-1c0-3.7-2.5-5.8-6.3-5.8c-2.7,0-5.3,0.7-7.6,2.2l-1.6-3.4c3-1.7,6.2-2.6,9.5-2.6
		c3.7,0,6.5,1,8.4,2.9c1.8,1.9,2.7,4.7,2.7,8.2L176.8,45.9L176.8,45.9z M171.7,33.7l-5.9,0.4c-3.8,0.2-5.8,1.7-5.8,4.4
		c0,2.5,2,4.4,5.2,4.4c2.7,0,4.8-1.2,6.5-3.7V33.7L171.7,33.7z"/>
	<path class="st0" d="M206.5,42.8c-2.2,2.5-5.2,3.7-8.9,3.7c-3.9,0-6.8-1.5-8.8-4.5l-0.1-0.1v14h-5.1V20.5h4.9v4h0.1
		c2.2-3,5.2-4.5,9-4.5c3.7,0,6.6,1.2,8.9,3.7c2.2,2.5,3.4,5.6,3.4,9.4C209.9,37.1,208.8,40.3,206.5,42.8 M204.6,33.2
		c0-2.6-0.7-4.8-2.2-6.4c-1.4-1.7-3.4-2.5-5.9-2.5s-4.5,0.9-5.9,2.5c-1.4,1.7-2.1,3.8-2.1,6.4s0.7,4.8,2.1,6.5
		c1.4,1.7,3.4,2.5,5.9,2.5s4.4-0.9,5.9-2.5C203.9,37.9,204.6,35.8,204.6,33.2"/>
	<path class="st0" d="M238.3,42.8c-2.2,2.5-5.2,3.7-8.9,3.7c-3.9,0-6.8-1.5-8.8-4.5l-0.1-0.1v14h-5.1V20.5h4.9v4h0.1
		c2.2-3,5.2-4.5,9-4.5c3.7,0,6.6,1.2,8.9,3.7c2.2,2.5,3.4,5.6,3.4,9.4C241.8,37.1,240.6,40.3,238.3,42.8 M236.5,33.2
		c0-2.6-0.7-4.8-2.2-6.4c-1.4-1.7-3.4-2.5-5.9-2.5s-4.5,0.9-5.9,2.5c-1.4,1.7-2.1,3.8-2.1,6.4s0.7,4.8,2.1,6.5
		c1.4,1.7,3.4,2.5,5.9,2.5s4.4-0.9,5.9-2.5C235.8,37.9,236.5,35.8,236.5,33.2"/>
	<path class="st0" d="M270.2,34.4h-19.6c0.3,5,3.5,8.1,8.2,8.1c4.8,0.1,7.8-2.6,8.4-2.9l2.1,2.9l-0.2,0.2c-0.9,0.9-4.2,3.8-11,3.8
		c-3.8,0-6.8-1.2-9.2-3.6c-2.4-2.4-3.5-5.7-3.5-9.7c0-3.9,1.2-7.1,3.7-9.5s5.6-3.6,9.2-3.6c3.5,0,6.4,1.1,8.7,3.4
		c2.2,2.2,3.4,5.1,3.4,8.7L270.2,34.4z M265.5,31c-0.1-1.7-0.7-3.4-2-4.9c-1.2-1.6-3-2.4-5.3-2.4c-2.3,0-4.1,0.7-5.4,2.3
		c-1.3,1.5-2,3.2-2.1,5H265.5L265.5,31z"/>
	<path class="st0" d="M300,9v36.9h-4.9v-4.1H295c-2.1,3.1-5,4.7-8.9,4.7c-3.7,0-6.7-1.2-9-3.7c-2.2-2.5-3.4-5.7-3.4-9.6
		c0-3.8,1.1-7,3.4-9.4c2.2-2.5,5.2-3.7,8.9-3.7c3.9,0,6.9,1.5,8.9,4.4h0.1V9H300z M295.1,33.2c0-2.6-0.7-4.8-2.2-6.4
		c-1.4-1.7-3.4-2.5-5.9-2.5s-4.5,0.9-5.9,2.5c-1.4,1.7-2.1,3.8-2.1,6.4s0.7,4.8,2.1,6.5s3.4,2.5,5.9,2.5s4.4-0.9,5.9-2.5
		C294.3,37.9,295.1,35.8,295.1,33.2"/>
	<path class="st1" d="M48.7,26.9V32c0,8.5-6.9,15.4-15.4,15.4S17.9,40.5,17.9,32V14.1c0-2.1-1.7-3.8-3.8-3.8s-3.8,1.7-3.8,3.8V32
		c0,12.7,10.3,23.1,23.1,23.1s23-10.4,23-23.1V14.1c0-2.1-1.7-3.8-3.8-3.8s-3.8,1.7-3.8,3.8v5c0,0.7-0.6,1.3-1.3,1.3
		s-1.3-0.6-1.3-1.3v-5c0-3.5,2.9-6.4,6.4-6.4s6.4,2.9,6.4,6.4V32c0,14.1-11.5,25.6-25.6,25.6C19.2,57.6,7.7,46.1,7.7,32V14.1
		c0-3.5,2.9-6.4,6.4-6.4s6.4,2.9,6.4,6.4V32c0,7.1,5.7,12.8,12.8,12.8S46.1,39.1,46.1,32v-2.6c0-2.1-1.7-3.8-3.8-3.8
		s-3.8,1.7-3.8,3.8V32c0,2.8-2.3,5.1-5.1,5.1s-5.1-2.3-5.1-5.1V14.1C28.2,6.3,21.9,0,14.1,0S0,6.3,0,14.1V32
		c0,18.4,14.9,33.3,33.3,33.3S66.6,50.4,66.6,32V14.1C66.6,6.3,60.3,0,52.5,0S38.4,6.3,38.4,14.1v7.5c0,0.7,0.6,1.3,1.3,1.3
		s1.3-0.6,1.3-1.3v-7.5c0-6.4,5.2-11.5,11.5-11.5C58.9,2.6,64,7.7,64,14.1V32c0,17-13.8,30.7-30.7,30.7C16.4,62.8,2.6,49,2.6,32
		V14.1c0-6.4,5.2-11.5,11.5-11.5c6.4,0,11.5,5.2,11.5,11.5V32c0,4.2,3.4,7.7,7.7,7.7c4.2,0,7.7-3.4,7.7-7.7v-2.6
		c0-0.7,0.6-1.3,1.3-1.3s1.3,0.6,1.3,1.3V32c0,5.6-4.6,10.2-10.2,10.2c-5.7,0-10.2-4.6-10.2-10.2V14.1c0-4.9-4-9-9-9c-4.9,0-9,4-9,9
		V32c0,15.5,12.6,28.2,28.2,28.2c15.5,0,28.2-12.6,28.2-28.2V14.1c0-4.9-4-9-9-9c-4.9,0-9,4-9,9v5c0,2.1,1.7,3.8,3.8,3.8
		s3.8-1.7,3.8-3.8v-5c0-0.7,0.6-1.3,1.3-1.3s1.3,0.6,1.3,1.3V32c0,11.3-9.2,20.5-20.5,20.5S12.8,43.3,12.8,32V14.1
		c0-0.7,0.6-1.3,1.3-1.3s1.3,0.6,1.3,1.3V32c0,9.9,8,17.9,17.9,17.9s17.9-8,17.9-17.9v-5.1c0-0.7-0.6-1.3-1.3-1.3
		C49.2,25.6,48.7,26.2,48.7,26.9"/>
</g>
</svg>
