<?xml version="1.0" encoding="UTF-8"?> <!-- Generator: Adobe Illustrator 16.0.0, SVG Export Plug-In . SVG Version: 6.00 Build 0) --> <svg xmlns="http://www.w3.org/2000/svg" xmlns:xlink="http://www.w3.org/1999/xlink" id="Layer_1" x="0px" y="0px" width="300px" height="300px" viewBox="0 0 300 300" xml:space="preserve"> <path fill="#1FA9B0" d="M146.191,141.035L16.893,177.779c-9.158,2.602-10.23,15.152-1.652,19.271l32.385,15.551l-35.502,35.502 c-7.324,7.324-7.324,19.195,0,26.514l13.254,13.254c3.662,3.662,8.461,5.49,13.26,5.49s9.598-1.828,13.26-5.49l35.502-35.502 l15.551,32.385c1.904,3.961,5.602,5.865,9.293,5.865c4.301,0,8.578-2.584,9.984-7.518l36.75-129.299 C161.186,146.01,153.979,138.82,146.191,141.035z M110.244,256.652l-17.402-36.24l-54.205,54.205l-13.254-13.254l54.205-54.205 L43.354,189.75l93.457-26.561L110.244,256.652z"></path> <path fill="#1F1C26" d="M196.875,150c0-25.846-21.029-46.875-46.875-46.875c-19.77,0-36.639,12.346-43.512,29.701 c31.834-9.053,36.873-10.951,43.512-10.951c15.51,0,28.125,12.615,28.125,28.125c0,6.598-1.816,11.391-10.951,43.512 C184.529,186.639,196.875,169.77,196.875,150z"></path> <path fill="#1F1C26" d="M152.297,245.865c52.025-1.254,93.797-43.547,93.797-95.865c0-53.115-42.984-96.094-96.094-96.094 c-52.33,0-94.611,41.777-95.865,93.797l19.307-5.484C77.414,103.26,110.016,72.656,150,72.656c42.65,0,77.344,34.693,77.344,77.344 c0,39.979-30.609,72.586-69.557,76.559L152.297,245.865L152.297,245.865z"></path> <path fill="#1F1C26" d="M150,4.688C69.744,4.688,4.688,69.744,4.688,150c0,4.277,0.275,8.49,0.639,12.674 c2.027-1.154,4.102-2.268,6.439-2.93l11.994-3.41c-0.105-2.109-0.322-4.195-0.322-6.334C23.438,80.215,80.215,23.438,150,23.438 S276.563,80.215,276.563,150S219.785,276.563,150,276.563c-2.139,0-4.225-0.217-6.334-0.322l-3.41,11.988 c-0.668,2.355-1.846,4.395-3.012,6.434c4.213,0.369,8.449,0.645,12.756,0.645c80.256,0,145.313-65.057,145.313-145.313 S230.256,4.688,150,4.688z"></path> </svg> 