<?xml version="1.0" encoding="UTF-8"?> <!-- Generator: Adobe Illustrator 16.0.0, SVG Export Plug-In . SVG Version: 6.00 Build 0) --> <svg xmlns="http://www.w3.org/2000/svg" xmlns:xlink="http://www.w3.org/1999/xlink" id="Layer_1" x="0px" y="0px" width="300px" height="300px" viewBox="0 0 300 300" xml:space="preserve"> <path fill="#1F1C26" d="M299.766,242.063c-2.344-6.375-9.516-9.656-15.984-7.219l-16.406,6.094l-21.563-57.844 c26.719-15.094,37.266-48.516,21.938-75.047L227.016,37.5c-2.766-4.781-7.781-7.5-12.984-7.5c-1.922,0-3.844,0.375-5.719,1.125 l-56.531,23.438c-0.656,0.281-2.859,0.281-3.516,0L91.734,31.125C89.859,30.328,87.938,30,86.016,30 c-5.203,0-10.266,2.719-12.984,7.5L32.25,108.047C16.922,134.578,27.469,168,54.188,183.094l-21.563,57.844l-16.406-6.094 c-6.469-2.391-13.641,0.891-16.078,7.359c-0.469,1.313,0.188,2.719,1.453,3.234l65.578,24.469c1.313,0.469,2.719-0.188,3.234-1.453 c2.391-6.469-0.891-13.688-7.359-16.078l-16.406-6.094l21.375-57.375c33.328,8.766,60.844-12,67.781-37.828L150,98.344 l14.109,52.594c6.984,25.969,34.594,46.594,67.781,37.828l21.375,57.375l-16.406,6.094c-6.469,2.391-9.75,9.609-7.359,16.078 c0.469,1.313,1.922,1.969,3.234,1.453l65.578-24.469C299.625,244.828,300.281,243.375,299.766,242.063z M131.531,109.359 l-66.75-27.656L85.969,45L142.5,68.438L131.531,109.359z M168.469,109.359L157.5,68.438L214.031,45l21.188,36.703L168.469,109.359z"></path> <path fill="#1FA9B0" d="M121.406,147.094c-7.406,27.563-36.516,33.281-55.172,25.547c-22.781-9.422-33.094-36.094-20.953-57.094 l11.953-20.719l70.406,29.156L121.406,147.094z"></path> <path fill="#1FA9B0" d="M178.594,147.094l-6.188-23.109l70.406-29.156l11.953,20.719c12.141,21.047,1.828,47.672-20.953,57.094 C214.688,180.563,185.813,173.906,178.594,147.094z"></path> </svg> 