<?xml version="1.0" encoding="UTF-8"?> <!-- Generator: Adobe Illustrator 16.0.0, SVG Export Plug-In . SVG Version: 6.00 Build 0) --> <svg xmlns="http://www.w3.org/2000/svg" xmlns:xlink="http://www.w3.org/1999/xlink" id="Layer_1" x="0px" y="0px" width="300px" height="300px" viewBox="0 0 300 300" xml:space="preserve"> <path fill="#1F1C26" d="M277.5,75h-165C100.092,75,90,85.092,90,97.5v7.5h15v-7.5c0-4.144,3.356-7.5,7.5-7.5h165 c4.144,0,7.5,3.356,7.5,7.5v105c0,4.144-3.356,7.5-7.5,7.5H195v15h82.5c12.408,0,22.5-10.092,22.5-22.5v-105 C300,85.092,289.908,75,277.5,75z"></path> <path fill="#1F1C26" d="M45,52.5c0-4.144,3.356-7.5,7.5-7.5h135c4.144,0,7.5,3.356,7.5,7.5V60h15v-7.5 c0-12.408-10.092-22.5-22.5-22.5h-135C40.092,30,30,40.092,30,52.5V105h15V52.5z"></path> <path fill="#1FA9B0" d="M262.5,105h-30c-4.144,0-7.5,3.356-7.5,7.5v30c0,4.144,3.356,7.5,7.5,7.5h30c4.144,0,7.5-3.356,7.5-7.5v-30 C270,108.356,266.644,105,262.5,105z M255,135h-15v-15h15V135z"></path> <path fill="#1F1C26" d="M157.5,120h-135C10.092,120,0,130.092,0,142.5v105C0,259.908,10.092,270,22.5,270h135 c12.408,0,22.5-10.092,22.5-22.5v-105C180,130.092,169.908,120,157.5,120z M165,247.5c0,4.144-3.356,7.5-7.5,7.5h-135 c-4.144,0-7.5-3.356-7.5-7.5V177c6,4.5,15,12,45,33c6,4.5,18,15,30,15s24-10.5,30-15c30-21,39-28.5,45-33V247.5z M165,159 c-12,9-10.5,9-54,40.5C106.5,201,97.5,210,90,210s-16.5-9-21-12c-43.5-31.5-42-31.5-54-40.5v-15c0-4.144,3.356-7.5,7.5-7.5h135 c4.144,0,7.5,3.356,7.5,7.5V159z"></path> </svg> 