<?xml version="1.0" encoding="UTF-8"?> <!-- Generator: Adobe Illustrator 16.0.0, SVG Export Plug-In . SVG Version: 6.00 Build 0) --> <svg xmlns="http://www.w3.org/2000/svg" xmlns:xlink="http://www.w3.org/1999/xlink" id="Layer_1" x="0px" y="0px" width="300px" height="300px" viewBox="0 0 300 300" xml:space="preserve"> <path fill="#1FA9B0" d="M178.125,103.125h-9.375c-3.574,0-6.797,1.992-8.379,5.156L150,129.023l-10.371-20.742 c-1.582-3.164-4.805-5.156-8.379-5.156h-9.375c-5.156,0-9.375,4.219-9.375,9.375v60.938c0,2.578,2.109,4.688,4.688,4.688h9.375 c2.578,0,4.688-2.109,4.688-4.688v-39.961l14.531,32.695c1.699,3.457,6.68,3.457,8.379,0l14.531-32.695v39.961 c0,2.578,2.109,4.688,4.688,4.688h9.375c2.578,0,4.688-2.109,4.688-4.688V112.5C187.5,107.344,183.281,103.125,178.125,103.125z"></path> <path fill="#1FA9B0" d="M79.336,128.027c-0.82-0.703-1.23-1.465-1.23-2.227c0-1.816,2.637-3.867,6.094-3.867h7.207 c2.578,0,4.688-2.109,4.688-4.688v-9.375c0-2.578-2.109-4.688-4.688-4.688h-7.148c-13.711,0-24.844,10.137-24.844,22.617 c0,6.27,2.871,12.246,7.793,16.465l12.832,11.016c0.82,0.703,1.23,1.465,1.23,2.227c0,1.816-2.637,3.867-6.094,3.867h-7.207 c-2.578,0-4.688,2.109-4.688,4.688v9.375c0,2.578,2.109,4.688,4.688,4.688h7.207c13.711,0,24.844-10.137,24.844-22.617 c0-6.27-2.871-12.246-7.793-16.465L79.336,128.027L79.336,128.027z"></path> <path fill="#1FA9B0" d="M219.961,128.027c-0.82-0.703-1.23-1.465-1.23-2.227c0-1.816,2.637-3.867,6.094-3.867h7.207 c2.578,0,4.688-2.109,4.688-4.688v-9.375c0-2.578-2.109-4.688-4.688-4.688h-7.207c-13.711,0-24.844,10.137-24.844,22.617 c0,6.27,2.871,12.246,7.793,16.465l12.832,11.016c0.82,0.703,1.23,1.465,1.23,2.227c0,1.816-2.637,3.867-6.094,3.867h-7.148 c-2.578,0-4.688,2.109-4.688,4.688v9.375c0,2.578,2.109,4.688,4.688,4.688h7.207c13.711,0,24.844-10.137,24.844-22.617 c0-6.27-2.871-12.246-7.793-16.465L219.961,128.027L219.961,128.027z"></path> <path fill="#1F1C26" d="M150,18.75C67.148,18.75,0,73.301,0,140.625c0,27.891,11.66,53.438,30.996,74.004 c-8.73,23.086-26.895,42.656-27.188,42.891c-3.867,4.102-4.922,10.078-2.695,15.234s7.266,8.496,12.891,8.496 c36.035,0,64.453-15.059,81.504-27.129C112.5,259.453,130.781,262.5,150,262.5c82.852,0,150-54.551,150-121.875 S232.852,18.75,150,18.75z M150,243.75c-16.582,0-32.988-2.52-48.75-7.5l-8.906-2.813l-7.617,5.391 c-13.477,9.551-34.277,20.684-60.117,23.203c7.031-8.848,17.461-23.672,23.906-40.781l4.16-10.957l-8.027-8.555 c-16.875-17.93-25.84-39.082-25.84-61.113c0-56.836,58.887-103.125,131.25-103.125s131.25,46.289,131.25,103.125 S222.363,243.75,150,243.75z"></path> </svg> 