<?xml version="1.0" encoding="UTF-8"?> <!-- Generator: Adobe Illustrator 16.0.0, SVG Export Plug-In . SVG Version: 6.00 Build 0) --> <svg xmlns="http://www.w3.org/2000/svg" xmlns:xlink="http://www.w3.org/1999/xlink" id="Layer_1" x="0px" y="0px" width="300px" height="300px" viewBox="0 0 300 300" xml:space="preserve"> <path fill="#1F1C26" d="M296.484,66.797H116.016c-1.934,0-3.516-1.582-3.516-3.516V49.219c0-1.934,1.582-3.516,3.516-3.516h180.469 c1.934,0,3.516,1.582,3.516,3.516v14.063C300,65.215,298.418,66.797,296.484,66.797z"></path> <path fill="#1F1C26" d="M300,157.031v-14.063c0-1.934-1.582-3.516-3.516-3.516H116.016c-1.934,0-3.516,1.582-3.516,3.516v14.063 c0,1.934,1.582,3.516,3.516,3.516h180.469C298.418,160.547,300,158.965,300,157.031z"></path> <path fill="#1F1C26" d="M300,250.781v-14.063c0-1.934-1.582-3.516-3.516-3.516H116.016c-1.934,0-3.516,1.582-3.516,3.516v14.063 c0,1.934,1.582,3.516,3.516,3.516h180.469C298.418,254.297,300,252.715,300,250.781z"></path> <path fill="#1F1C26" d="M40.078,220.313c-11.66,0-21.094,9.434-21.094,21.094S28.418,262.5,40.078,262.5s20.859-9.434,20.859-21.094 S51.738,220.313,40.078,220.313z"></path> <path fill="#1FA9B0" d="M100.137,25.137l-4.336-4.336c-2.754-2.754-7.207-2.754-9.961,0L39.668,67.207l-22.5-22.5 c-2.754-2.754-7.207-2.754-9.961,0l-5.215,5.215c-2.754,2.754-2.754,7.207,0,9.961l31.816,31.816c2.754,2.754,7.207,2.754,9.961,0 l0.117-0.117l56.191-56.426C102.891,32.344,102.891,27.891,100.137,25.137z"></path> <path fill="#1FA9B0" d="M100.371,118.887l-4.336-4.336c-2.754-2.754-7.207-2.754-9.961,0l-46.172,46.406l-22.5-22.5 c-2.754-2.754-7.207-2.754-9.961,0l-5.098,5.215c-2.754,2.754-2.754,7.207,0,9.961l31.816,31.816c2.754,2.754,7.207,2.754,9.961,0 l-0.117-0.117l56.426-56.426C103.125,126.094,103.125,121.641,100.371,118.887z"></path> </svg> 